<svg width="28" height="30" viewBox="0 0 28 30" fill="none" xmlns="http://www.w3.org/2000/svg">
<path d="M26.9859 12.6249L26.9856 12.6252L25.0998 14.2753V15.7159L26.9557 17.4147C26.956 17.415 26.9563 17.4152 26.9565 17.4155C27.3224 17.7366 27.5653 18.1748 27.6438 18.6552C27.7223 19.1359 27.6313 19.6289 27.3864 20.0498C27.3863 20.05 27.3863 20.0501 27.3862 20.0502L25.1066 24.0494L25.1064 24.0499C24.9222 24.3688 24.6575 24.6337 24.3386 24.818C24.0199 25.0023 23.6583 25.0995 23.2902 25.0999M26.9859 12.6249L16.3998 28.9599C16.8691 28.9689 17.3266 28.8126 17.6922 28.5182C18.0579 28.2239 18.3083 27.8103 18.3998 27.3499L18.4978 27.3698L18.4978 27.3697C18.4978 27.3696 18.4978 27.3695 18.4978 27.3694L18.998 24.8982C19.4275 24.6882 19.8436 24.4518 20.2439 24.1903L22.6177 24.9946L22.6185 24.9949C22.8352 25.0662 23.0621 25.1016 23.2902 25.0999M26.9859 12.6249C27.3575 12.2974 27.6014 11.849 27.6744 11.3591C27.7474 10.8694 27.645 10.3697 27.3854 9.94821C27.3852 9.94795 27.385 9.9477 27.3849 9.94744L25.0264 5.94992C25.0263 5.94982 25.0263 5.94972 25.0262 5.94963C24.8421 5.63083 24.5774 5.36604 24.2586 5.1818C23.9399 4.99757 23.5783 4.90036 23.2102 4.89992M26.9859 12.6249L22.5378 5.00517M23.2902 25.0999C23.2901 25.0999 23.29 25.0999 23.2899 25.0999L23.2898 24.9999L23.2905 25.0999C23.2904 25.0999 23.2903 25.0999 23.2902 25.0999ZM22.5378 5.00517L22.5385 5.00492C22.7552 4.93367 22.9821 4.89821 23.2102 4.89992M22.5378 5.00517L20.1541 5.80953L22.5378 5.00517ZM23.2102 4.89992C23.2103 4.89992 23.2104 4.89992 23.2105 4.89992L23.2098 4.99992L23.2099 4.89992C23.21 4.89992 23.2101 4.89992 23.2102 4.89992ZM5.46389 4.96547L5.46375 4.96587L7.79672 5.80888C8.19668 5.54767 8.61242 5.31147 9.04156 5.10162L9.54168 2.63044C9.5417 2.63033 9.54172 2.63023 9.54174 2.63013C9.63781 2.14684 9.90076 1.71271 10.2846 1.40372C10.6683 1.09487 11.1483 0.930709 11.6407 0.939918H16.3188C16.8112 0.930709 17.2913 1.09487 17.6749 1.40372C18.0588 1.71271 18.3217 2.14683 18.4178 2.63012L18.4178 2.63008L18.3198 2.64992L18.4178 2.63044L5.46389 4.96547ZM5.46389 4.96547L5.45498 4.96315M5.46389 4.96547L5.45498 4.96315M5.45498 4.96315C5.23692 4.90634 5.01114 4.88499 4.78632 4.89992C4.41921 4.90089 4.05875 4.99807 3.74088 5.1818C3.4222 5.36601 3.15753 5.63075 2.97341 5.94948C2.97333 5.94963 2.97325 5.94977 2.97316 5.94992L0.613636 9.9491L0.61334 9.94961M5.45498 4.96315L0.61334 9.94961M0.61334 9.94961C0.368256 10.3706 0.277184 10.8638 0.355721 11.3446C0.4342 11.825 0.677155 12.2633 1.04302 12.5844L2.89976 14.284V15.725L1.04462 17.374C1.0444 17.3742 1.04418 17.3744 1.04397 17.3746C0.667664 17.698 0.417995 18.1441 0.339231 18.634C0.260449 19.124 0.357745 19.626 0.613852 20.0511C0.613942 20.0512 0.614032 20.0514 0.614122 20.0515L2.97316 24.0499C2.97325 24.0501 2.97335 24.0502 2.97344 24.0504C3.15756 24.3691 3.42221 24.6338 3.74088 24.818C4.05966 25.0023 4.42128 25.0995 4.78948 25.0999M0.61334 9.94961L5.46174 24.9947M5.46174 24.9947L5.461 24.9949C5.24434 25.0662 5.01753 25.1016 4.78948 25.0999M5.46174 24.9947L7.84539 24.1903L5.46174 24.9947ZM4.78948 25.0999C4.78932 25.0999 4.78916 25.0999 4.789 25.0999L4.78976 24.9999L4.78966 25.0999C4.7896 25.0999 4.78954 25.0999 4.78948 25.0999ZM11.6807 29.0599H16.3989L9.58168 27.3694L9.67976 27.3499L9.58175 27.3698L9.58175 27.3697C9.67782 27.853 9.94077 28.2871 10.3246 28.5961C10.7083 28.905 11.1883 29.0691 11.6807 29.0599ZM9.08152 24.898C9.09632 24.9053 9.11113 24.9126 9.12596 24.9198L9.16976 24.8299L9.07175 24.8498L9.08152 24.898ZM18.918 5.1018C18.9032 5.09451 18.8884 5.08725 18.8736 5.08002L18.8298 5.16992L18.9278 5.15008L18.918 5.1018ZM19.8118 21.7452L19.7583 21.7271L19.7151 21.7636C18.9213 22.436 18.0139 22.9617 17.0357 23.3159L16.9826 23.3351L16.9717 23.3905L16.2776 26.8999H11.7217L11.0278 23.4303L11.0169 23.3758L10.9649 23.3563C9.99381 22.9918 9.09086 22.4668 8.29375 21.8031L8.25131 21.7677L8.19881 21.7848L4.83511 22.88L2.55787 19.0203L5.21593 16.6749L5.2581 16.6377L5.24821 16.5823C5.06538 15.5588 5.06538 14.511 5.24821 13.4875L5.25793 13.4331L5.21699 13.3959L2.55726 10.9806L4.83464 7.12066L8.18773 8.25465L8.24127 8.27276L8.2844 8.23623C9.07827 7.56379 9.98558 7.03816 10.9638 6.68394L11.0169 6.66472L11.0279 6.60932L11.7219 3.09992H16.2778L16.9717 6.56953L16.9826 6.62402L17.0346 6.64354C18.0057 7.00803 18.9087 7.53308 19.7058 8.19677L19.7482 8.2321L19.8007 8.21501L23.1644 7.11985L25.4417 10.9796L22.7836 13.3249L22.7414 13.3621L22.7513 13.4175C22.9341 14.441 22.9341 15.4888 22.7513 16.5123L22.7416 16.5668L22.7825 16.604L25.4423 19.0192L23.1649 22.8792L19.8118 21.7452Z" fill="#0285E5" stroke="#0285E5" stroke-width="0.2"/>
</svg>
