<svg width="18" height="22" viewBox="0 0 18 22" fill="none" xmlns="http://www.w3.org/2000/svg">
<path d="M9.00021 0.928711C11.2167 0.928711 13.3423 1.80919 14.9096 3.37646C16.4769 4.94373 17.3574 7.0694 17.3574 9.28585C17.3574 12.8173 14.8759 16.6659 9.97735 20.8727C9.70497 21.1067 9.35769 21.2352 8.9986 21.2349C8.63952 21.2346 8.29247 21.1055 8.02049 20.871L7.69649 20.5899C3.01478 16.4927 0.643066 12.7384 0.643066 9.28585C0.643066 7.0694 1.52355 4.94373 3.09082 3.37646C4.65808 1.80919 6.78376 0.928711 9.00021 0.928711ZM9.00021 6.07157C8.14773 6.07157 7.33016 6.41021 6.72737 7.01301C6.12457 7.61581 5.78592 8.43337 5.78592 9.28585C5.78592 10.1383 6.12457 10.9559 6.72737 11.5587C7.33016 12.1615 8.14773 12.5001 9.00021 12.5001C9.85269 12.5001 10.6703 12.1615 11.2731 11.5587C11.8758 10.9559 12.2145 10.1383 12.2145 9.28585C12.2145 8.43337 11.8758 7.61581 11.2731 7.01301C10.6703 6.41021 9.85269 6.07157 9.00021 6.07157Z" fill="white"/>
</svg>
