<svg width="18" height="21" viewBox="0 0 18 21" fill="none" xmlns="http://www.w3.org/2000/svg">
<path d="M17.5201 13.7101L15.7201 11.9001V7.44014C15.744 5.78396 15.1679 4.17505 14.0982 2.91048C13.0285 1.6459 11.5373 0.811074 9.90007 0.560138C8.94989 0.435006 7.98394 0.513953 7.06668 0.791714C6.14942 1.06947 5.30194 1.53966 4.5808 2.1709C3.85965 2.80214 3.28142 3.57992 2.88468 4.45233C2.48794 5.32475 2.28182 6.27175 2.28007 7.23014V11.9001L0.480073 13.7101C0.253979 13.94 0.100657 14.2314 0.0392733 14.5479C-0.0221099 14.8645 0.0111694 15.1921 0.134951 15.4898C0.258732 15.7875 0.467524 16.0421 0.735224 16.2218C1.00292 16.4015 1.31766 16.4983 1.64007 16.5001H5.00007V16.8401C5.04678 17.8553 5.49403 18.8106 6.2438 19.4967C6.99357 20.1827 7.98473 20.5436 9.00007 20.5001C10.0154 20.5436 11.0066 20.1827 11.7563 19.4967C12.5061 18.8106 12.9534 17.8553 13.0001 16.8401V16.5001H16.3601C16.6825 16.4983 16.9972 16.4015 17.2649 16.2218C17.5326 16.0421 17.7414 15.7875 17.8652 15.4898C17.989 15.1921 18.0223 14.8645 17.9609 14.5479C17.8995 14.2314 17.7462 13.94 17.5201 13.7101ZM11.0001 16.8401C10.9446 17.3211 10.7057 17.7622 10.3331 18.0714C9.96057 18.3807 9.48306 18.5342 9.00007 18.5001C8.51709 18.5342 8.03957 18.3807 7.667 18.0714C7.29443 17.7622 7.05553 17.3211 7.00007 16.8401V16.5001H11.0001V16.8401ZM2.51007 14.5001L3.69007 13.3201C3.87724 13.1341 4.02574 12.9128 4.127 12.6691C4.22826 12.4254 4.28028 12.1641 4.28007 11.9001V7.23014C4.28062 6.55554 4.42546 5.88886 4.70487 5.27485C4.98428 4.66083 5.3918 4.11369 5.90007 3.67014C6.40149 3.21582 6.99565 2.87589 7.64141 2.67387C8.28718 2.47185 8.96914 2.41257 9.64007 2.50014C10.7966 2.68791 11.8463 3.28715 12.596 4.18752C13.3457 5.08789 13.7449 6.22878 13.7201 7.40014V11.9001C13.7186 12.1634 13.769 12.4243 13.8685 12.668C13.9681 12.9116 14.1147 13.1333 14.3001 13.3201L15.4901 14.5001H2.51007Z" fill="#A8A8A8"/>
</svg>
