<svg width="12" height="13" viewBox="0 0 12 13" fill="none" xmlns="http://www.w3.org/2000/svg">
<path d="M1.43524 6.88391L6.03024 2.28791C6.4522 1.86595 7.0245 1.6289 7.62124 1.6289C8.21798 1.6289 8.79028 1.86595 9.21224 2.28791C9.6342 2.70987 9.87125 3.28217 9.87125 3.87891C9.87125 4.47565 9.6342 5.04795 9.21224 5.46991L3.91024 10.7729C3.84108 10.8446 3.75835 10.9018 3.66687 10.9411C3.57539 10.9805 3.47698 11.0012 3.3774 11.0021C3.27781 11.003 3.17904 10.9841 3.08686 10.9464C2.99467 10.9087 2.9109 10.8531 2.84045 10.7827C2.77 10.7123 2.71427 10.6286 2.67651 10.5365C2.63876 10.4443 2.61974 10.3456 2.62055 10.246C2.62137 10.1464 2.64201 10.048 2.68128 9.95644C2.72054 9.86492 2.77764 9.78213 2.84924 9.71291L8.15224 4.40891C8.28472 4.26674 8.35684 4.07869 8.35341 3.88439C8.34998 3.69009 8.27127 3.5047 8.13386 3.36729C7.99645 3.22988 7.81106 3.15117 7.61676 3.14774C7.42246 3.14431 7.23441 3.21643 7.09224 3.34891L1.78824 8.65191C1.36628 9.07387 1.12922 9.64617 1.12922 10.2429C1.12922 10.8397 1.36628 11.412 1.78824 11.8339C2.2102 12.2559 2.7825 12.4929 3.37924 12.4929C3.97598 12.4929 4.54828 12.2559 4.97024 11.8339L10.2742 6.53091C10.9776 5.82756 11.3727 4.87361 11.3727 3.87891C11.3727 2.88422 10.9776 1.93027 10.2742 1.22691C9.57088 0.523558 8.61693 0.128418 7.62224 0.128418C6.62754 0.128418 5.67359 0.523558 4.97024 1.22691L0.374237 5.82291C0.302572 5.89206 0.245397 5.9748 0.206048 6.06628C0.166699 6.15776 0.145963 6.25617 0.145051 6.35575C0.144139 6.45534 0.163069 6.5541 0.200736 6.64629C0.238403 6.73848 0.294053 6.82225 0.364439 6.8927C0.434826 6.96315 0.518538 7.01888 0.610692 7.05664C0.702846 7.09439 0.801596 7.11341 0.901181 7.1126C1.00077 7.11178 1.09919 7.09113 1.19071 7.05187C1.28223 7.01261 1.36502 6.95551 1.43424 6.88391H1.43524Z" fill="#707070"/>
</svg>
